# xmcd
#
# Track frame offsets:
#	150
#	16752
#	31595
#	42777
#	55557
#	69060
#	83030
#	99522
#	112405
#	129452
#	142257
#	154915
#	169907
#	184895
#
# Disc length: 2627 seconds
#
# Revision: 1
# Processed by: cddbd v1.5.2PL0 Copyright (c) Steve Scherf et al.
# Submitted via: audiograbber 1.83.01
#
DISCID=b20a410e
DTITLE=Swane Hall - Just Keeping Country, Country
DYEAR=1994
DGENRE=
TTITLE0=Come On In
TTITLE1=Night Little Babe
TTITLE2=Keeping Country, Country
TTITLE3=She Was Right And Left
TTITLE4=I´m Going NoWhere, But Out Of My Mind
TTITLE5=The Only Time I Think Of You
TTITLE6=The Bottle
TTITLE7=Cheating kIn Her Smile
TTITLE8=Recall The Rose
TTITLE9=Tell Her I Can´t Stay
TTITLE10=True Love Never Knocks Twice
TTITLE11=Small Town Blues
TTITLE12=Only You, I´ve Forgive You Away
TTITLE13=Rose Of San Antone
EXTD=
EXTT0=
EXTT1=
EXTT2=
EXTT3=
EXTT4=
EXTT5=
EXTT6=
EXTT7=
EXTT8=
EXTT9=
EXTT10=
EXTT11=
EXTT12=
EXTT13=
PLAYORDER=
